<svg width="123" height="123" viewBox="0 0 123 123" fill="none" xmlns="http://www.w3.org/2000/svg">
    <circle cx="1.5" cy="1.5" r="1.5" fill="#000"/><circle cx="1.5" cy="16.5" r="1.5" fill="#000"/>
    <circle cx="1.5" cy="31.5" r="1.5" fill="#000"/><circle cx="1.5" cy="46.5" r="1.5" fill="#000"/>
    <circle cx="1.5" cy="61.5" r="1.5" fill="#000"/><circle cx="1.5" cy="76.5" r="1.5" fill="#000"/>
    <circle cx="1.5" cy="91.5" r="1.5" fill="#000"/><circle cx="1.5" cy="106.5" r="1.5" fill="#000"/>
    <circle cx="1.5" cy="121.5" r="1.5" fill="#000"/><circle cx="16.5" cy="1.5" r="1.5" fill="#000"/>
    <circle cx="16.5" cy="16.5" r="1.5" fill="#000"/><circle cx="16.5" cy="31.5" r="1.5" fill="#000"/>
    <circle cx="16.5" cy="46.5" r="1.5" fill="#000"/><circle cx="16.5" cy="61.5" r="1.5" fill="#000"/>
    <circle cx="16.5" cy="76.5" r="1.5" fill="#000"/><circle cx="16.5" cy="91.5" r="1.5" fill="#000"/>
    <circle cx="16.5" cy="106.5" r="1.5" fill="#000"/><circle cx="31.5" cy="1.5" r="1.5" fill="#000"/>
    <circle cx="31.5" cy="16.5" r="1.5" fill="#000"/><circle cx="31.5" cy="31.5" r="1.5" fill="#000"/>
    <circle cx="31.5" cy="46.5" r="1.5" fill="#000"/><circle cx="31.5" cy="61.5" r="1.5" fill="#000"/>
    <circle cx="31.5" cy="76.5" r="1.5" fill="#000"/><circle cx="31.5" cy="91.5" r="1.5" fill="#000"/>
    <circle cx="46.5" cy="1.5" r="1.5" fill="#000"/><circle cx="46.5" cy="16.5" r="1.5" fill="#000"/>
    <circle cx="46.5" cy="31.5" r="1.5" fill="#000"/><circle cx="46.5" cy="46.5" r="1.5" fill="#000"/>
    <circle cx="46.5" cy="61.5" r="1.5" fill="#000"/><circle cx="46.5" cy="76.5" r="1.5" fill="#000"/>
    <circle cx="61.5" cy="1.5" r="1.5" fill="#000"/><circle cx="61.5" cy="16.5" r="1.5" fill="#000"/>
    <circle cx="61.5" cy="31.5" r="1.5" fill="#000"/><circle cx="61.5" cy="46.5" r="1.5" fill="#000"/>
    <circle cx="61.5" cy="61.5" r="1.5" fill="#000"/><circle cx="76.5" cy="1.5" r="1.5" fill="#000"/>
    <circle cx="76.5" cy="16.5" r="1.5" fill="#000"/><circle cx="76.5" cy="31.5" r="1.5" fill="#000"/>
    <circle cx="76.5" cy="46.5" r="1.5" fill="#000"/><circle cx="91.5" cy="1.5" r="1.5" fill="#000"/>
    <circle cx="91.5" cy="16.5" r="1.5" fill="#000"/><circle cx="91.5" cy="31.5" r="1.5" fill="#000"/>
    <circle cx="106.5" cy="1.5" r="1.5" fill="#000"/><circle cx="106.5" cy="16.5" r="1.5" fill="#000"/>
    <circle cx="121.5" cy="1.5" r="1.5" fill="#000"/>
</svg>
